<?xml version="1.0" encoding="utf-8"?>
<!-- Generator: Adobe Illustrator 18.0.0, SVG Export Plug-In . SVG Version: 6.00 Build 0)  -->
<!DOCTYPE svg PUBLIC "-//W3C//DTD SVG 1.1//EN" "http://www.w3.org/Graphics/SVG/1.1/DTD/svg11.dtd">
<svg version="1.1" id="Layer_1" xmlns="http://www.w3.org/2000/svg" xmlns:xlink="http://www.w3.org/1999/xlink" x="0px" y="0px"
	 viewBox="0 0 236.1 202.6" enable-background="new 0 0 236.1 202.6" xml:space="preserve">
<path d="M115.8,202.4c-4.6-1-8.9-3.2-13-5.4c-8.7-4.8-16.9-10.6-24.8-16.6c-9-6.7-17.5-14-25.6-21.7c-7.8-7.4-15.2-15.3-22-23.6
	c-7.5-9.1-14.3-18.9-19.6-29.4C4.7,93.9,0.4,80.9,0,67.6c-0.2-4.4,0.1-8.7,0.9-13.1c1-5.7,2.8-11.3,5.3-16.5
	c2.7-5.6,6.2-10.9,10.2-15.6C22.5,14.9,30.5,8.8,39.4,5c9.4-4.1,19.9-5.7,30.1-4.7c10.2,0.8,20,4.3,28.7,9.7
	c7,4.3,13.2,9.8,18.9,15.7c0.4,0.2,0.6,0.5,0.9,0.9c6.3-7.4,13.8-13.8,22.4-18.4C151.8,2,165.1-1,178,0.3c10.5,1,20.8,4.7,29.3,10.8
	c8,5.5,14.4,13.1,19.4,21.4c4.5,7.6,7.6,16.2,8.7,24.9c0.9,6.9,0.6,14-0.5,20.9c-0.6,3.2-1.3,6.3-2.2,9.4
	c-4.4,14.8-12.4,28.3-21.5,40.6c-10.3,13.7-22.3,26.1-35.1,37.4c-11.4,10-23.5,19.3-36.4,27.4c-4.2,2.6-8.5,5.1-13,7.1
	C123.3,201.7,119.6,203.2,115.8,202.4z"/>
</svg>
